<?xml version="1.0" standalone="no"?>
<!DOCTYPE svg PUBLIC "-//W3C//DTD SVG 20010904//EN"
 "http://www.w3.org/TR/2001/REC-SVG-20010904/DTD/svg10.dtd">
<svg version="1.0" xmlns="http://www.w3.org/2000/svg"
 width="1200.000000pt" height="1200.000000pt" viewBox="0 0 1200.000000 1200.000000"
 preserveAspectRatio="xMidYMid meet">
<metadata>
Created by potrace 1.11, written by Peter Selinger 2001-2013
</metadata>
<g transform="translate(0.000000,1200.000000) scale(0.100000,-0.100000)"
fill="#000000" stroke="none">
<path d="M7240 10379 c-72 -32 -152 -129 -163 -195 -1 -11 -5 -23 -8 -29 -6
-11 -4 -78 4 -115 15 -74 89 -176 146 -200 l30 -12 -2 -171 -1 -172 -50 -45
c-87 -79 -94 -85 -118 -105 -61 -52 -154 -131 -164 -140 -6 -5 -35 -30 -64
-55 -30 -25 -68 -57 -84 -72 -39 -34 -66 -58 -116 -98 -64 -52 -84 -74 -95
-100 -8 -20 -13 -699 -6 -861 1 -28 47 -92 71 -98 59 -15 112 2 145 47 19 26
20 44 20 420 l0 393 37 34 c20 19 39 35 42 35 3 0 14 8 24 18 15 15 94 83 152
132 55 46 199 170 254 220 165 147 208 201 199 245 -5 26 -10 336 -5 352 2 7
23 23 46 37 69 40 131 128 140 198 3 18 5 34 6 36 3 3 3 41 0 45 0 1 -3 17 -5
35 -7 81 -87 184 -171 222 -61 28 -201 28 -264 -1z"/>
<path d="M5455 10145 c-59 -17 -96 -39 -137 -80 -34 -34 -72 -97 -73 -120 0
-5 -3 -14 -7 -20 -3 -5 -6 -37 -6 -70 0 -111 55 -206 156 -269 25 -16 40 -31
36 -38 -10 -16 -5 -684 5 -711 9 -24 55 -69 317 -316 49 -46 155 -147 237
-225 l147 -140 -5 -671 c-7 -1010 -7 -1009 1 -1030 10 -27 55 -65 79 -67 73
-6 118 14 137 60 14 32 15 106 22 1066 4 595 3 723 -9 745 -11 22 -91 100
-308 305 -23 22 -103 97 -177 167 -74 71 -152 144 -174 164 l-38 35 0 292 c0
365 0 358 12 358 19 0 88 55 114 92 37 51 63 134 61 188 -2 25 -3 45 -5 45 -1
0 -3 11 -6 25 -16 90 -122 198 -210 215 -10 2 -19 4 -19 5 0 9 -119 5 -150 -5z"/>
<path d="M4805 8810 c-202 -31 -316 -247 -230 -435 30 -65 131 -149 195 -163
45 -9 139 -7 173 5 39 13 41 13 70 -14 17 -15 37 -35 46 -43 9 -8 52 -46 95
-85 43 -38 100 -90 126 -115 27 -25 71 -65 99 -90 28 -25 73 -65 100 -90 98
-90 225 -205 248 -225 13 -12 26 -32 29 -45 8 -40 10 -120 2 -120 -4 0 -5 -6
-2 -14 8 -21 10 -106 2 -106 -4 0 -5 -6 -2 -14 9 -23 10 -106 1 -106 -5 0 -5
-5 -2 -10 4 -6 6 -34 6 -63 -1 -29 -1 -61 -1 -72 0 -129 -1 -168 -6 -176 -3
-5 -2 -9 3 -9 9 0 8 -83 -1 -106 -3 -8 -2 -14 2 -14 8 0 6 -85 -2 -106 -3 -8
-2 -14 2 -14 8 0 6 -85 -2 -106 -3 -8 -2 -14 2 -14 8 0 6 -85 -2 -106 -3 -8
-2 -14 2 -14 8 0 6 -85 -2 -106 -3 -8 -2 -14 2 -14 4 0 6 -24 5 -53 0 -30 5
-67 13 -83 40 -83 169 -83 208 1 13 26 20 228 17 463 0 9 0 64 0 122 1 58 1
112 0 120 0 8 0 98 0 200 0 102 0 192 0 200 0 8 0 62 0 120 1 58 1 112 0 120
-2 31 -2 78 1 86 1 5 -1 33 -5 63 -9 59 -7 57 -188 221 -45 41 -99 91 -120
110 -21 19 -68 62 -106 95 -37 33 -81 74 -98 90 -18 17 -69 63 -116 104 -46
41 -89 79 -94 85 -6 6 -35 34 -65 61 l-55 50 0 62 c0 35 4 63 8 63 5 0 5 5 1
12 -4 7 -9 25 -11 40 -11 103 -134 221 -243 234 -19 3 -42 6 -50 7 -8 2 -33 0
-55 -3z"/>
<path d="M7522 8718 c-135 -50 -217 -211 -182 -357 l12 -52 -106 -106 c-58
-59 -106 -110 -106 -114 0 -4 -9 -11 -20 -14 -11 -3 -20 -10 -20 -14 0 -4
-107 -116 -238 -249 -132 -134 -251 -255 -266 -271 -25 -26 -42 -91 -37 -138
2 -22 2 -25 -3 -503 -2 -256 -6 -625 -7 -821 l-3 -357 24 -35 c36 -53 100 -66
157 -32 62 37 56 -69 66 1186 l5 567 240 243 c133 134 296 301 364 370 l123
127 59 -11 c42 -8 73 -8 114 1 61 13 162 68 162 89 0 7 4 13 9 13 14 0 50 62
64 111 14 46 15 129 3 164 -16 45 -51 107 -70 125 -56 52 -83 69 -131 84 -65
21 -147 18 -213 -6z"/>
<path d="M2695 6050 c-108 -15 -134 -19 -157 -24 -12 -3 -34 -8 -48 -10 -58
-11 -119 -27 -160 -43 -8 -4 -18 -6 -22 -5 -10 2 -192 -62 -307 -108 -151 -60
-194 -79 -384 -172 -98 -49 -182 -88 -188 -88 -5 0 -9 -4 -9 -10 0 -5 -4 -10
-9 -10 -5 0 -52 -24 -103 -53 -52 -29 -101 -57 -109 -60 -8 -4 -32 -18 -54
-32 -22 -14 -51 -31 -65 -38 -14 -6 -27 -14 -30 -17 -3 -3 -59 -39 -125 -80
-119 -74 -275 -178 -285 -189 -3 -3 -17 -13 -31 -21 -15 -8 -37 -23 -50 -32
-294 -216 -287 -211 -398 -306 -30 -26 -62 -53 -71 -59 -21 -15 -50 -84 -56
-133 -3 -19 -7 -42 -9 -50 -21 -68 -30 -1423 -12 -1780 4 -85 10 -204 13 -265
10 -231 13 -290 14 -295 1 -3 3 -25 4 -50 2 -25 3 -60 4 -78 3 -50 86 -126
165 -151 59 -18 152 -21 217 -7 65 14 89 20 115 30 117 43 171 64 230 91 39
18 74 32 79 33 5 0 12 4 15 9 8 11 154 83 168 83 6 0 13 4 15 9 2 4 59 37 128
71 69 35 136 71 150 81 14 9 28 17 33 18 4 0 35 15 70 33 34 18 64 32 67 33 3
0 14 6 25 12 23 13 235 104 250 108 6 1 17 5 25 8 41 18 130 45 130 40 0 -3 6
0 14 6 8 7 27 14 43 16 15 2 44 7 63 10 117 22 227 26 345 11 28 -4 73 -9 100
-13 74 -9 90 -11 90 -13 0 -1 14 -4 30 -6 17 -2 41 -7 55 -11 14 -3 28 -6 33
-5 4 1 46 -7 95 -17 48 -11 101 -22 117 -25 29 -6 54 -11 93 -20 9 -2 40 -9
67 -16 28 -6 106 -24 174 -41 68 -17 132 -31 142 -32 11 -1 19 -5 19 -9 0 -4
9 -8 20 -8 10 0 43 -6 72 -14 56 -16 135 -37 221 -60 28 -8 113 -31 187 -51
74 -20 143 -40 152 -46 10 -5 25 -9 33 -9 9 0 51 -11 93 -25 42 -13 88 -27
102 -29 14 -3 26 -5 28 -7 2 -2 4 -2 47 -14 39 -10 156 -45 175 -52 8 -3 25
-7 37 -8 12 -1 30 -8 39 -16 9 -8 18 -12 18 -10 1 6 107 -19 127 -30 9 -4 30
-11 48 -14 17 -3 50 -12 74 -19 23 -8 62 -20 87 -27 62 -17 59 -16 120 -34 30
-9 63 -18 73 -20 9 -2 21 -6 25 -9 5 -3 19 -7 33 -10 13 -3 67 -17 119 -31 52
-15 102 -28 110 -30 8 -2 15 -4 15 -5 0 -1 7 -3 15 -5 8 -1 42 -10 75 -19 33
-9 67 -18 75 -20 8 -3 78 -20 155 -40 139 -35 293 -70 350 -80 17 -3 64 -12
105 -20 50 -10 126 -14 230 -13 l155 3 110 46 c125 52 243 106 398 183 59 30
107 51 107 47 0 -4 4 -2 8 4 4 6 35 25 69 42 67 34 100 51 123 63 8 5 35 19
60 32 162 84 286 151 290 156 3 4 24 15 48 25 23 11 42 24 42 29 0 6 3 8 6 4
7 -6 137 62 142 75 2 4 8 8 14 8 6 0 49 22 97 49 47 26 115 64 151 84 36 19
145 80 243 136 99 56 181 101 183 101 3 0 10 5 17 11 17 15 239 139 249 139 4
0 8 4 8 9 0 5 9 12 20 16 16 5 127 66 190 105 42 26 222 130 225 130 2 0 59
33 127 73 67 41 143 85 168 99 25 14 94 54 153 89 59 35 132 78 161 94 29 17
60 35 67 41 8 6 24 15 36 18 13 4 23 11 23 15 0 4 16 13 35 21 19 8 35 17 35
22 0 4 7 8 15 8 8 0 15 5 15 10 0 6 6 10 14 10 7 0 25 9 38 20 14 10 28 16 32
13 3 -3 6 -2 6 3 0 5 21 21 48 34 26 14 49 28 52 31 3 3 21 14 40 24 19 10 37
21 40 24 3 3 19 13 35 21 17 8 32 18 35 21 3 3 32 21 65 40 80 45 85 48 155
92 34 20 66 37 71 37 5 0 9 5 9 10 0 6 4 10 9 10 5 0 60 31 123 69 124 76 401
244 454 276 73 44 210 129 223 139 8 6 44 41 81 78 77 75 137 170 177 278 26
71 28 83 28 255 0 148 -6 230 -15 230 -1 0 -3 7 -5 15 -5 27 -43 115 -65 156
-54 96 -148 194 -256 265 -68 45 -180 103 -199 104 -5 0 -14 3 -20 6 -17 11
-139 48 -170 53 -16 2 -30 5 -30 6 0 3 -96 11 -155 12 -78 2 -187 -15 -200
-31 -3 -3 -20 -14 -38 -23 -35 -19 -158 -85 -237 -128 -27 -15 -86 -47 -130
-70 -44 -24 -100 -54 -125 -67 -25 -14 -92 -50 -150 -81 -58 -31 -106 -59
-108 -64 -2 -4 -10 -8 -18 -8 -8 0 -32 -11 -53 -24 -21 -14 -42 -22 -45 -19
-3 4 -6 2 -6 -4 0 -6 -8 -13 -17 -17 -10 -3 -49 -23 -88 -44 -89 -49 -204
-111 -302 -164 -116 -62 -117 -62 -125 -73 -4 -5 -8 -6 -8 -2 0 5 -19 -4 -42
-18 -24 -14 -62 -35 -85 -45 -23 -11 -45 -24 -48 -30 -3 -5 -15 -10 -26 -10
-10 0 -19 -4 -19 -9 0 -5 -9 -13 -20 -16 -11 -3 -71 -34 -133 -68 -63 -34
-136 -73 -163 -87 -27 -14 -51 -27 -54 -30 -3 -3 -27 -16 -55 -30 -27 -14 -52
-27 -55 -30 -3 -3 -36 -21 -75 -41 -70 -36 -169 -89 -300 -161 -38 -21 -82
-43 -97 -49 -16 -6 -28 -15 -28 -20 0 -5 -9 -9 -19 -9 -11 0 -22 -4 -25 -8 -3
-4 -31 -21 -63 -37 -32 -16 -60 -32 -63 -35 -3 -4 -20 -13 -37 -21 -18 -8 -33
-16 -34 -19 -1 -3 -3 -41 -4 -85 -2 -44 -6 -103 -9 -131 -5 -45 -11 -75 -32
-183 -3 -13 -10 -34 -16 -45 -6 -12 -11 -21 -10 -21 6 0 -16 -58 -44 -116 -18
-38 -34 -73 -34 -77 -1 -4 -8 -11 -16 -15 -8 -4 -14 -14 -14 -22 0 -8 -42 -56
-93 -107 -102 -101 -121 -118 -136 -118 -5 0 -16 -6 -23 -13 -31 -29 -224
-106 -277 -110 -12 -1 -21 -4 -21 -7 0 -3 -10 -6 -22 -6 -13 -1 -54 -5 -93
-10 -87 -9 -266 -10 -320 -1 -71 12 -74 13 -81 20 -4 4 -15 7 -24 7 -9 0 -46
9 -81 20 -35 11 -80 25 -99 30 -19 5 -116 33 -215 61 -99 28 -184 52 -190 54
-5 1 -30 8 -55 15 -25 7 -49 14 -55 16 -5 1 -59 16 -120 33 -60 17 -126 36
-145 41 -19 5 -75 21 -125 35 -49 14 -115 33 -145 41 -30 8 -69 19 -87 25 -31
10 -49 14 -102 25 -14 3 -28 7 -33 10 -5 3 -21 7 -36 10 -15 2 -38 9 -52 14
-27 10 -139 39 -179 47 -14 2 -28 6 -33 9 -4 3 -16 7 -25 9 -10 2 -90 22 -178
45 -88 23 -168 43 -178 45 -10 2 -26 6 -35 9 -9 3 -28 7 -42 10 -14 3 -43 10
-65 16 -22 6 -49 13 -60 15 -47 11 -75 17 -80 16 -2 0 -19 5 -37 10 -37 11
-200 48 -238 55 -14 2 -45 9 -70 14 -25 5 -56 12 -70 14 -14 3 -36 7 -50 11
-14 3 -43 8 -65 10 -22 3 -65 9 -95 13 -107 15 -165 1 -368 -92 -155 -71 -152
-70 -209 -79 -27 -4 -39 0 -64 24 -28 26 -30 33 -24 67 11 64 98 151 205 204
25 13 47 26 50 30 3 3 18 10 33 13 15 4 27 12 27 18 0 6 3 7 7 4 3 -4 11 -3
17 2 26 20 156 54 217 56 37 2 72 5 77 9 6 3 13 3 15 -1 3 -5 39 -8 81 -8 42
0 76 -2 76 -5 0 -3 12 -5 28 -5 37 -1 165 -16 172 -20 4 -2 24 -6 46 -9 21 -3
75 -12 119 -21 44 -8 94 -18 110 -21 17 -3 86 -19 155 -36 69 -16 132 -31 140
-33 8 -2 51 -13 95 -24 44 -11 100 -25 125 -31 25 -7 52 -14 60 -17 8 -3 22
-7 30 -8 14 -3 32 -8 78 -20 9 -2 67 -18 127 -36 174 -49 179 -50 201 -54 12
-1 31 -8 43 -14 11 -7 21 -9 21 -7 0 3 18 -1 40 -9 22 -8 40 -12 40 -10 0 3
12 0 28 -6 15 -6 34 -12 42 -14 8 -2 58 -16 110 -31 52 -14 102 -28 110 -29 8
-2 73 -20 144 -40 71 -20 137 -38 145 -40 9 -2 59 -15 111 -30 52 -14 104 -28
115 -30 43 -10 64 -15 165 -40 58 -15 112 -28 120 -30 8 -2 65 -15 125 -29 61
-14 121 -28 135 -30 14 -2 44 -9 68 -14 23 -5 42 -8 42 -6 0 3 8 1 18 -4 60
-32 252 -30 346 4 22 8 46 16 52 17 6 2 23 10 37 20 15 9 29 17 32 17 12 0
124 105 155 145 23 30 72 114 97 165 65 135 79 306 39 475 -13 56 -76 195 -87
195 -5 0 -9 6 -9 13 0 26 -114 130 -191 174 -32 18 -189 73 -210 73 -4 0 -20
5 -36 12 -15 6 -36 13 -46 15 -19 3 -72 20 -322 99 -82 26 -154 49 -160 50 -5
1 -62 19 -125 40 -63 21 -117 38 -120 39 -10 2 -245 76 -260 82 -8 3 -21 7
-28 9 -8 1 -21 6 -30 10 -9 4 -26 9 -37 11 -11 1 -29 7 -40 12 -11 5 -49 19
-85 30 -36 12 -121 40 -190 62 -69 22 -129 42 -135 43 -58 16 -71 20 -80 25
-5 3 -14 6 -20 7 -5 1 -55 17 -110 34 -103 33 -166 53 -175 55 -3 1 -39 12
-80 25 -41 13 -77 25 -80 25 -3 1 -39 12 -80 25 -41 13 -79 25 -85 26 -5 2
-41 12 -80 24 -38 12 -90 28 -115 35 -25 7 -76 23 -115 34 -38 12 -79 24 -90
26 -11 3 -31 9 -45 14 -25 9 -106 32 -125 37 -5 1 -30 7 -55 15 -25 7 -49 13
-55 14 -5 2 -46 13 -90 25 -44 12 -84 23 -90 24 -5 1 -16 5 -22 9 -7 5 -13 6
-13 3 0 -3 -11 -1 -25 4 -14 5 -36 12 -48 14 -41 9 -62 14 -127 31 -36 9 -74
19 -85 21 -11 2 -29 6 -40 9 -20 4 -236 49 -290 60 -16 3 -40 8 -53 10 -90 18
-174 30 -282 41 -85 8 -275 10 -325 4z"/>
</g>
</svg>
