<?xml version="1.0" standalone="no"?>
<!DOCTYPE svg PUBLIC "-//W3C//DTD SVG 20010904//EN"
 "http://www.w3.org/TR/2001/REC-SVG-20010904/DTD/svg10.dtd">
<svg version="1.0" xmlns="http://www.w3.org/2000/svg"
 width="900.000000pt" height="900.000000pt" viewBox="0 0 900.000000 900.000000"
 preserveAspectRatio="xMidYMid meet">
<metadata>
Created by potrace 1.11, written by Peter Selinger 2001-2013
</metadata>
<g transform="translate(0.000000,900.000000) scale(0.100000,-0.100000)"
fill="#000000" stroke="none">
<path d="M4702 7353 c-22 -37 -71 -123 -111 -191 -39 -68 -71 -125 -71 -127 0
-3 34 -5 75 -5 l75 0 0 -827 0 -828 -155 155 -155 155 0 111 0 112 29 11 c69
29 121 115 121 201 0 126 -95 223 -220 223 -132 0 -230 -95 -230 -223 0 -86
46 -162 121 -201 l39 -19 0 -138 0 -137 225 -218 225 -219 0 -67 0 -66 -73
-12 c-41 -7 -99 -23 -130 -37 l-56 -24 -325 174 c-179 96 -361 186 -403 201
-71 25 -91 27 -218 27 -98 0 -157 -5 -197 -16 l-57 -16 -3 347 -3 346 -28 79
c-48 135 -114 226 -232 321 -145 115 -333 181 -545 192 -234 11 -412 -64 -509
-215 -64 -100 -62 -61 -58 -1219 3 -961 5 -1054 21 -1122 48 -201 134 -342
275 -449 41 -32 470 -265 1125 -611 583 -309 1071 -571 1084 -584 56 -52 57
-55 62 -427 l5 -345 27 -50 c54 -102 161 -175 285 -195 81 -14 1500 -13 1582
1 135 21 250 107 290 214 21 55 21 69 21 894 0 921 0 924 -61 1097 -104 297
-347 555 -674 714 -92 45 -266 107 -487 174 l-87 27 -16 57 c-58 199 -240 386
-432 443 l-43 12 0 291 0 291 230 224 230 223 0 134 0 134 80 0 80 0 0 225 0
225 -230 0 -230 0 0 -225 0 -225 80 0 80 0 0 -103 0 -102 -153 -153 c-84 -83
-156 -152 -160 -152 -4 0 -7 268 -7 595 l0 594 80 3 79 3 -110 190 c-60 104
-112 191 -114 193 -2 2 -21 -27 -43 -65z m-2197 -1058 c165 -35 309 -140 354
-260 20 -53 21 -75 21 -485 l0 -429 -30 -48 c-78 -122 -90 -268 -32 -386 44
-88 104 -144 288 -268 385 -260 908 -674 1334 -1058 142 -127 180 -149 245
-137 112 21 173 157 112 247 -29 44 -250 241 -549 490 -367 306 -661 530 -951
726 -208 140 -208 140 -162 218 29 50 75 87 152 122 78 36 214 43 293 16 30
-10 327 -164 660 -342 332 -178 643 -342 690 -364 109 -50 243 -99 500 -181
304 -97 443 -170 589 -310 89 -87 150 -170 196 -269 66 -142 65 -132 65 -1021
l0 -804 -22 -6 c-30 -8 -1476 -8 -1505 0 l-23 6 0 300 c0 339 -8 397 -66 495
-40 66 -110 141 -169 183 -22 15 -506 274 -1075 575 -569 301 -1053 560 -1076
576 -57 39 -103 93 -131 156 -51 112 -52 132 -53 1204 l0 997 24 23 c13 13 39
29 58 35 46 17 179 17 263 -1z"/>
</g>
</svg>
