<?xml version="1.0" standalone="no"?>
<!DOCTYPE svg PUBLIC "-//W3C//DTD SVG 20010904//EN"
 "http://www.w3.org/TR/2001/REC-SVG-20010904/DTD/svg10.dtd">
<svg version="1.0" xmlns="http://www.w3.org/2000/svg"
 width="1200.000000pt" height="1200.000000pt" viewBox="0 0 1200.000000 1200.000000"
 preserveAspectRatio="xMidYMid meet">
<metadata>
Created by potrace 1.11, written by Peter Selinger 2001-2013
</metadata>
<g transform="translate(0.000000,1200.000000) scale(0.100000,-0.100000)"
fill="#000000" stroke="none">
<path d="M7209 10136 c-237 -61 -294 -377 -92 -513 24 -15 43 -35 44 -43 0 -8
1 -80 1 -159 l-1 -144 -38 -34 c-70 -63 -158 -141 -183 -163 -89 -76 -127
-108 -149 -128 -14 -13 -40 -35 -59 -50 -19 -15 -51 -43 -72 -62 -21 -19 -63
-56 -93 -82 -29 -26 -54 -55 -55 -65 -5 -62 -3 -808 3 -831 11 -54 122 -94
159 -57 8 8 18 15 23 15 28 0 34 77 34 426 l0 358 34 30 c19 17 44 40 57 50
73 61 146 123 168 144 14 13 42 38 63 56 21 17 49 40 61 51 210 187 255 231
266 259 4 12 7 100 5 196 -1 96 0 182 2 190 2 9 17 21 32 28 55 24 125 112
136 171 2 9 4 16 5 16 2 0 3 25 5 55 7 189 -171 332 -356 286z"/>
<path d="M5474 9892 c-27 -9 -58 -24 -68 -32 -87 -73 -120 -136 -120 -230 1
-78 4 -93 31 -146 23 -43 79 -98 118 -116 l23 -10 1 -340 c1 -236 4 -346 12
-361 7 -12 28 -35 47 -52 19 -16 42 -38 51 -49 9 -10 36 -37 60 -60 68 -64
415 -394 477 -454 12 -11 13 -146 8 -810 l-5 -797 28 -33 c22 -27 38 -35 74
-39 40 -5 50 -2 78 23 19 17 35 44 39 64 4 19 7 198 7 397 0 200 3 363 7 363
4 0 4 10 0 23 -9 26 -9 38 0 52 4 6 3 17 -2 24 -4 8 -4 26 0 41 4 15 4 33 0
41 -5 7 -6 17 -4 21 8 13 8 144 0 157 -4 6 -4 11 1 11 4 0 8 119 8 263 -1 231
-3 267 -17 288 -27 39 -45 59 -51 59 -2 0 -38 33 -79 73 -41 39 -120 115 -175
167 -55 52 -153 146 -219 209 l-119 114 -1 303 -1 302 26 14 c42 21 79 58 108
107 31 52 35 74 35 157 -1 186 -199 321 -378 256z"/>
<path d="M4864 8638 c-83 -22 -150 -76 -188 -151 -81 -162 6 -360 179 -406 35
-10 164 -5 177 7 16 13 11 17 288 -238 15 -14 69 -63 120 -110 51 -47 105 -96
120 -110 15 -14 70 -64 122 -112 l94 -86 -1 -664 c0 -713 -2 -685 50 -730 33
-28 100 -23 134 10 15 15 31 37 35 49 4 12 7 329 7 705 1 573 -2 690 -14 719
-8 19 -55 71 -107 119 -51 47 -115 105 -141 130 -26 25 -67 62 -91 84 -44 39
-205 187 -264 241 -17 17 -66 61 -107 98 -72 65 -75 69 -66 99 14 51 3 141
-25 195 -59 117 -201 183 -322 151z"/>
<path d="M7444 8565 c-22 -6 -57 -23 -77 -37 -37 -25 -110 -109 -102 -117 3
-2 0 -10 -6 -17 -6 -8 -13 -37 -16 -66 -2 -29 -6 -54 -8 -56 -1 -2 4 -24 11
-49 17 -55 36 -28 -171 -239 -408 -417 -545 -562 -545 -576 0 -14 -2 -22 -11
-46 -6 -16 -6 -21 2 -16 8 5 8 1 0 -14 -8 -14 -8 -23 -1 -27 8 -5 8 -11 1 -19
-6 -7 -8 -16 -4 -19 8 -9 10 -106 2 -101 -6 3 -4 -50 2 -66 2 -6 1 -9 -5 -44
-3 -14 0 -26 5 -26 6 0 7 -5 3 -12 -4 -6 -9 -208 -10 -447 -1 -240 -3 -525 -4
-633 -1 -195 3 -224 34 -253 55 -49 145 -32 176 35 8 17 13 202 16 610 3 322
6 677 7 791 l3 205 161 165 c89 90 241 246 340 347 175 179 179 182 209 173
40 -11 131 -7 169 9 17 8 33 14 37 14 15 2 98 81 98 94 0 6 3 12 8 12 10 0 34
56 40 94 20 130 -30 238 -141 304 -44 27 -68 34 -118 36 -35 2 -82 -2 -105 -9z"/>
<path d="M2967 6053 c-2 -1 -25 -4 -52 -7 -101 -11 -140 -17 -155 -23 -8 -3
-22 -7 -30 -8 -8 -1 -44 -10 -80 -19 -36 -10 -69 -19 -75 -20 -37 -8 -203 -67
-262 -92 -17 -8 -38 -14 -47 -14 -9 0 -16 -4 -16 -10 0 -5 -7 -10 -16 -10 -15
0 -51 -15 -189 -81 -38 -18 -72 -33 -75 -34 -3 -1 -52 -25 -110 -55 -58 -30
-109 -57 -115 -59 -5 -2 -18 -10 -27 -19 -10 -8 -18 -12 -18 -9 0 4 -24 -8
-52 -26 -29 -18 -69 -41 -88 -50 -37 -19 -72 -39 -80 -47 -3 -3 -15 -11 -27
-17 -13 -7 -33 -19 -45 -25 -13 -7 -25 -15 -28 -18 -3 -3 -26 -18 -53 -33 -75
-44 -292 -189 -295 -198 -2 -5 -8 -9 -14 -9 -8 0 -94 -56 -108 -70 -3 -3 -30
-23 -60 -45 -30 -22 -56 -43 -58 -47 -2 -5 -10 -8 -18 -8 -8 0 -14 -4 -14 -9
0 -4 -18 -21 -41 -35 -22 -15 -53 -38 -67 -51 -15 -12 -60 -51 -100 -85 -40
-34 -77 -72 -82 -84 -25 -62 -27 -70 -35 -136 -4 -25 -8 -55 -10 -66 -10 -65
-27 -427 -25 -554 0 -8 0 -33 -1 -55 0 -22 0 -44 0 -50 0 -5 3 -131 5 -280 7
-359 18 -700 32 -935 3 -52 5 -101 5 -107 -2 -23 -1 -37 3 -88 3 -27 5 -81 7
-120 2 -81 14 -110 65 -155 49 -42 131 -75 179 -71 6 0 33 2 60 4 138 11 347
96 710 289 186 99 394 207 403 208 4 1 28 12 55 25 26 13 47 22 47 18 0 -3 6
-1 13 5 12 11 178 72 219 81 4 1 26 8 48 16 22 8 43 14 45 14 3 -1 22 2 43 5
20 3 59 8 86 11 27 2 51 7 54 9 2 3 13 1 23 -4 12 -7 20 -7 24 0 4 6 12 7 18
3 7 -4 28 -8 47 -10 55 -3 119 -10 195 -23 39 -7 84 -14 100 -17 17 -2 62 -11
100 -19 39 -8 86 -17 105 -20 19 -3 53 -10 75 -16 22 -5 47 -12 55 -13 54 -13
198 -46 210 -49 107 -28 130 -33 130 -29 0 3 6 1 13 -5 7 -6 28 -14 47 -17 19
-3 53 -11 75 -18 22 -6 45 -11 50 -12 6 0 15 -3 20 -6 6 -4 28 -10 50 -14 22
-4 46 -12 53 -17 7 -6 15 -8 19 -5 3 4 12 2 19 -4 8 -6 21 -9 29 -5 8 3 15 1
15 -4 0 -6 6 -10 14 -10 12 0 326 -87 401 -111 59 -19 270 -80 293 -85 13 -2
42 -11 65 -19 34 -11 113 -34 137 -40 3 0 32 -9 65 -19 33 -10 68 -20 77 -21
9 -2 25 -8 35 -13 10 -6 20 -10 23 -9 9 2 105 -24 122 -34 10 -5 28 -9 41 -9
13 0 28 -5 35 -12 7 -7 12 -9 12 -6 0 3 21 0 48 -8 37 -12 204 -59 282 -80
138 -37 386 -98 460 -114 134 -27 151 -31 189 -35 19 -2 50 -7 70 -11 58 -10
173 -11 216 -1 56 13 57 13 88 25 16 7 31 12 33 12 3 0 30 11 60 25 30 14 57
25 59 25 6 0 333 156 360 172 11 7 63 34 115 62 52 27 122 64 155 81 33 18 87
47 120 64 33 18 96 52 140 77 44 24 96 52 115 62 19 9 38 22 42 27 5 7 8 7 8
0 0 -6 3 -6 8 0 4 6 18 16 32 23 47 23 175 95 180 101 3 3 28 17 55 31 28 14
52 27 55 30 3 3 23 14 45 26 77 41 110 59 115 64 4 4 29 18 115 64 11 6 22 13
25 16 4 4 29 18 115 64 11 6 22 13 25 16 3 3 15 11 28 17 12 7 32 19 45 25 12
7 25 17 28 21 3 5 10 9 15 9 9 0 110 57 184 102 19 12 46 28 60 36 89 49 490
286 512 302 16 11 28 16 28 12 0 -4 8 0 18 8 9 8 44 31 77 50 33 19 144 85
247 147 103 61 192 111 197 111 6 0 11 3 11 8 0 4 24 20 53 36 28 16 60 36 70
44 9 8 17 11 17 6 0 -5 4 -4 8 2 4 6 34 25 67 44 33 19 62 37 65 40 3 4 25 17
50 31 25 13 47 26 50 29 12 12 112 70 121 70 5 0 9 3 9 8 0 4 15 13 33 21 17
8 34 17 37 20 6 7 27 20 80 51 19 11 47 28 62 38 15 9 66 41 115 70 48 29 131
80 183 113 52 33 110 67 128 76 17 9 32 20 32 25 0 4 4 8 9 8 19 0 96 59 151
114 71 71 70 70 113 147 54 96 85 197 91 295 2 22 6 45 9 51 4 6 4 13 0 17 -3
3 -7 35 -9 70 -4 99 -50 249 -100 321 -13 20 -24 38 -24 40 0 8 -33 46 -73 84
-22 20 -48 46 -60 59 -11 12 -24 22 -29 22 -4 0 -19 9 -32 21 -13 12 -26 19
-29 18 -3 -2 -13 3 -23 12 -42 37 -233 115 -308 126 -17 2 -38 7 -46 10 -28
11 -229 12 -262 2 -39 -13 -211 -99 -218 -110 -3 -4 -18 -11 -33 -14 -15 -4
-27 -10 -27 -14 0 -4 -12 -12 -27 -18 -16 -6 -57 -28 -93 -49 -36 -20 -108
-59 -160 -87 -52 -27 -103 -57 -113 -65 -9 -8 -17 -11 -17 -6 0 5 -4 5 -8 -1
-4 -5 -29 -21 -57 -35 -27 -14 -52 -27 -55 -30 -3 -3 -36 -21 -75 -41 -38 -21
-133 -71 -209 -113 -77 -42 -143 -76 -148 -76 -4 0 -8 -4 -8 -10 0 -5 -9 -10
-19 -10 -11 0 -21 -3 -23 -7 -1 -5 -30 -21 -63 -38 -33 -16 -67 -35 -75 -41
-8 -6 -53 -31 -100 -55 -47 -24 -87 -46 -90 -49 -3 -3 -32 -19 -65 -35 -33
-17 -62 -32 -65 -35 -3 -3 -30 -18 -60 -34 -30 -16 -75 -40 -100 -54 -39 -21
-108 -58 -255 -136 -22 -11 -42 -23 -45 -26 -3 -3 -19 -12 -36 -21 -152 -79
-180 -95 -189 -102 -10 -7 -43 -25 -185 -98 -36 -18 -66 -37 -68 -41 -2 -4
-10 -8 -17 -8 -7 0 -22 -8 -34 -17 -19 -16 -22 -30 -25 -118 -2 -55 -6 -113
-10 -130 -3 -16 -8 -43 -10 -60 -15 -101 -63 -227 -125 -330 -79 -132 -200
-239 -336 -297 -83 -35 -116 -47 -147 -53 -36 -7 -67 -13 -98 -21 -14 -4 -98
-8 -187 -10 -122 -2 -172 0 -203 11 -22 8 -42 14 -45 15 -3 0 -6 0 -7 1 -2 0
-10 2 -18 4 -8 2 -40 11 -70 20 -30 8 -77 22 -105 29 -27 8 -81 24 -120 36
-38 11 -77 23 -85 25 -23 5 -298 83 -360 102 -30 9 -59 18 -65 19 -10 2 -470
130 -570 159 -55 15 -134 37 -150 41 -29 6 -262 67 -275 72 -8 3 -22 6 -31 8
-8 2 -42 11 -75 19 -32 9 -68 18 -79 21 -58 12 -98 22 -105 25 -3 1 -9 3 -15
4 -5 1 -28 7 -50 13 -22 6 -51 13 -65 15 -14 3 -43 10 -65 15 -22 6 -51 13
-65 16 -14 3 -43 10 -65 15 -46 11 -191 41 -220 46 -11 2 -36 6 -55 9 -19 3
-44 8 -56 10 -31 6 -127 19 -139 18 -29 -2 -82 -13 -114 -23 -34 -11 -227 -98
-263 -119 -22 -12 -75 -24 -111 -23 -53 1 -83 57 -59 113 34 80 205 192 382
250 82 27 92 28 245 25 88 -2 171 -7 185 -10 14 -4 40 -8 59 -10 19 -2 49 -7
68 -10 18 -3 49 -8 68 -11 19 -3 85 -16 147 -30 62 -13 124 -27 138 -30 24 -5
255 -62 275 -68 6 -1 28 -6 50 -11 22 -4 48 -12 58 -17 10 -5 28 -10 40 -12
12 -1 29 -5 37 -8 13 -5 133 -37 165 -44 6 -2 66 -19 135 -39 69 -20 132 -38
140 -40 29 -7 246 -67 330 -92 47 -13 96 -27 110 -29 14 -3 45 -11 70 -18 25
-8 59 -18 75 -22 17 -4 35 -8 40 -10 40 -12 164 -46 182 -50 12 -2 34 -9 48
-14 14 -5 25 -7 25 -5 0 2 10 1 23 -4 13 -5 41 -12 61 -15 21 -4 42 -9 47 -12
5 -3 22 -8 37 -10 15 -3 52 -11 82 -19 30 -8 66 -16 80 -19 14 -3 41 -9 60
-14 19 -5 38 -9 43 -10 4 -1 8 -2 10 -3 7 -2 46 -9 72 -13 17 -3 41 -8 55 -11
73 -17 112 -21 175 -18 63 2 105 8 113 13 3 3 13 6 50 15 17 4 32 11 32 16 0
5 9 9 20 9 11 0 20 5 20 10 0 6 4 10 10 10 30 0 150 125 200 209 69 116 106
243 104 351 -2 90 -17 188 -33 215 -3 6 -6 16 -7 23 -1 7 -17 41 -35 77 -61
123 -161 211 -289 255 -36 12 -72 25 -80 28 -8 3 -20 6 -26 7 -6 2 -58 18
-115 36 -57 18 -109 34 -116 35 -16 3 -113 33 -138 43 -22 9 -194 64 -210 67
-12 2 -383 123 -405 131 -8 4 -17 7 -20 8 -19 4 -219 69 -235 75 -21 9 -93 32
-110 36 -5 1 -53 16 -105 34 -52 17 -102 33 -110 35 -8 2 -49 16 -90 30 -41
14 -85 28 -97 30 -12 2 -28 7 -35 11 -7 5 -22 10 -33 11 -11 2 -29 7 -40 12
-11 6 -67 24 -125 41 -152 46 -259 79 -305 94 -49 17 -183 57 -199 61 -6 1
-18 5 -26 8 -8 4 -24 8 -35 10 -11 2 -27 6 -35 9 -23 9 -121 37 -155 44 -16 4
-34 9 -40 13 -5 3 -19 7 -30 9 -20 3 -134 34 -190 52 -16 5 -41 11 -55 14 -14
3 -49 12 -77 20 -29 8 -53 12 -53 10 0 -3 -13 2 -29 10 -16 9 -30 13 -33 11
-2 -2 -36 4 -76 14 -40 11 -72 17 -72 15 0 -3 -8 0 -17 5 -10 5 -34 12 -53 15
-19 3 -81 14 -138 26 -56 11 -106 19 -110 19 -4 -1 -9 0 -12 1 -3 1 -18 4 -35
5 -16 2 -30 4 -30 5 0 9 -359 33 -368 23z"/>
</g>
</svg>
