<?xml version="1.0" encoding="UTF-8"?>
<svg width="1800px" height="1286px" viewBox="0 0 1800 1286" version="1.1" xmlns="http://www.w3.org/2000/svg" xmlns:xlink="http://www.w3.org/1999/xlink">
    <!-- Generator: Sketch 43.2 (39069) - http://www.bohemiancoding.com/sketch -->
    <title>logo</title>
    <desc>Created with Sketch.</desc>
    <defs></defs>
    <g id="digial-logo" stroke="none" stroke-width="1" fill="none" fill-rule="evenodd">
        <g id="logo">
            <g id="Group" transform="translate(584.000000, 72.000000)">
                <path d="M431.089758,520.714765 L325.081194,415.130216 L325.081194,352.835548 C303.818762,345.967909 288.335461,326.304433 288.335461,302.84 C288.335461,273.684929 312.070017,250.047726 341.345165,250.047726 C370.620313,250.047726 394.354869,273.684929 394.354869,302.84 C394.354869,326.304433 378.871568,345.967909 357.609136,352.835548 L357.609136,401.718883 L431.089758,474.908909 L431.089758,91.6817004 L394.582564,91.6817004 L447.35373,0.642292302 L500.135738,91.6817004 L463.617701,91.6817004 L463.617701,369.32436 L537.120008,296.134334 L537.120008,250.047726 L500.363433,250.047726 L500.363433,144.463177 L606.382841,144.463177 L606.382841,250.047726 L569.647951,250.047726 L569.647951,309.556465 L463.617701,415.130216 L463.617708,549.518714 C569.647957,576.526159 585.105477,685.686982 579.279782,708.198349 C573.454086,730.709717 500.660463,667.091838 440.820321,637.611215 C399.828937,617.416551 339.011894,596.746374 349.87146,581.955941 C360.731025,567.165508 400.09695,549.518714 431.089758,549.518714 C431.089758,543.947462 431.089758,520.714765 431.089758,520.714765 Z" id="digital-tree" fill="#4990E2"></path>
                <path d="M357.565192,801.509982 C433.58215,889.743952 281.548233,705.131337 155.305783,603.32291 C113.331866,569.472978 149.293734,527.061396 149.293734,526.767741 C149.293734,524.469212 149.293734,520.432233 149.293734,517.803827 C149.293734,468.993196 149.293734,370.54474 149.293734,370.54474 C149.293734,317.775588 106.35427,274.846322 53.5725812,274.846322 L45.9062384,274.846322 C20.8990431,274.846322 0.556974085,295.18356 0.556974085,320.184816 L0.556974085,646.096878 C0.556974085,692.59586 4.18491523,740.414182 47.5657346,769.263142 L334.561478,960.112826 C353.402939,972.644342 364.653087,993.625805 364.653087,1016.25313 L364.653087,1116.47878 C364.653087,1133.12275 378.19387,1146.66032 394.837381,1146.66032 L601.263701,1146.66032 C617.911626,1146.66032 631.452409,1133.12275 631.452409,1116.47878 L631.452409,844.063934 C631.452409,765.212462 584.117045,695.406626 510.856467,666.222315 L465.533684,648.161931 C445.835994,640.312084 426.937157,630.339821 409.353559,618.505482 L244.873653,507.844259 C234.373809,500.771012 222.126197,497.038033 209.468125,497.038033 C194.303155,497.038033 170.237686,500.157038 149.293738,526.767746" id="left-hand" stroke="#4990E2" stroke-width="28"></path>
            </g>
        </g>
    </g>
</svg>