<?xml version="1.0" encoding="UTF-8" standalone="no"?>
<!DOCTYPE svg PUBLIC "-//W3C//DTD SVG 1.1//EN" "http://www.w3.org/Graphics/SVG/1.1/DTD/svg11.dtd">
<svg width="100%" height="100%" viewBox="0 0 800 500" version="1.1" xmlns="http://www.w3.org/2000/svg" xmlns:xlink="http://www.w3.org/1999/xlink" xml:space="preserve" xmlns:serif="http://www.serif.com/" style="fill-rule:evenodd;clip-rule:evenodd;stroke-linejoin:round;stroke-miterlimit:2;">
    <g transform="matrix(1.24697,0,0,1.24697,-214.605,-278.776)">
        <path d="M253.32,585.656C253.32,585.656 247.348,484.59 254.522,477.932C272.529,461.219 331.923,421.25 366.351,422.118C402.526,423.031 492.94,456.781 544.748,471.99C560.745,476.686 563.06,495.06 560.736,503.103C560.088,505.345 553.85,527.69 531.776,523.254C479.895,512.827 421.916,489.947 393.566,492.167C388.457,492.567 368.653,501.207 372.456,508.194C375.998,514.702 388.764,502.007 397.461,502.817C423.386,505.234 524.183,535.819 526.189,535.974C577.608,539.935 573.216,492.286 573.216,492.286C573.216,492.286 687.254,430.461 689.26,429.221C696.261,424.892 717.388,428.651 727.968,441.433C738.384,454.018 737.543,477.182 720.515,487.726C657.403,526.806 535.6,598.819 515.777,602.801C495.842,606.806 386.956,565.03 343.213,562.173C312.309,560.154 266.46,607.81 253.32,585.656Z" style="fill:rgb(20,92,158);stroke:rgb(20,92,158);stroke-width:0.8px;"/>
    </g>
    <g transform="matrix(-1.12445,0,0,1.12445,1015.87,-230.223)">
        <g transform="matrix(1.24697,0,0,1.24697,-99.0536,-94.2777)">
            <path d="M490.392,367.016L490.891,427.106C490.909,429.269 492.679,431.01 494.841,430.992C497.003,430.974 498.744,429.204 498.726,427.041L498.215,365.372C498.206,364.359 497.806,363.388 497.097,362.664L463.298,327.941C462.19,326.084 459.782,325.476 457.926,326.585C456.069,327.693 455.461,330.1 456.57,331.957C456.736,332.236 459.671,335.448 463.912,339.836C472.43,348.65 486.389,362.925 490.392,367.016Z" style="fill:rgb(13,159,73);stroke:rgb(13,159,73);stroke-width:0.71px;"/>
        </g>
        <g transform="matrix(1.24697,0,0,1.24697,-99.0536,-94.2777)">
            <path d="M473.517,291.998C473.534,291.698 473.548,291.37 473.558,291.017C473.735,284.966 473.326,269.478 473.326,269.478C473.268,267.316 471.466,265.608 469.305,265.666C467.143,265.723 465.435,267.525 465.493,269.687C465.493,269.687 465.899,284.859 465.726,290.787C465.712,291.254 465.678,291.808 465.657,292.104C465.312,293.118 465.309,294.47 466.482,295.963C466.854,296.435 467.753,297.362 469.046,298.571C474.253,303.437 486.715,314.057 490.891,317.601L490.891,344.93C490.891,347.092 492.646,348.848 494.808,348.848C496.971,348.848 498.726,347.092 498.726,344.93L498.726,315.788C498.726,314.635 498.219,313.541 497.338,312.796C497.338,312.796 480.619,298.662 474.396,292.846C474.091,292.561 473.785,292.265 473.517,291.998ZM473.172,294.422C472.985,295.053 472.642,295.566 472.22,295.99C472.5,295.708 472.905,295.218 473.172,294.422Z" style="fill:rgb(13,159,73);stroke:rgb(13,159,73);stroke-width:0.71px;"/>
        </g>
        <g transform="matrix(1.24697,0,0,1.24697,-99.0536,-94.2777)">
            <path d="M513.629,339.907L537.905,316.702C538.677,315.964 539.115,314.943 539.116,313.875L539.162,278.683C539.165,276.521 537.412,274.763 535.25,274.76C533.087,274.757 531.329,276.51 531.327,278.673L531.283,312.193L506.992,335.412C506.211,336.158 505.773,337.193 505.781,338.273L506.242,400.029C506.259,402.192 508.027,403.934 510.189,403.918C512.352,403.902 514.094,402.133 514.078,399.971L513.629,339.907Z" style="fill:rgb(13,159,73);stroke:rgb(13,159,73);stroke-width:0.71px;"/>
        </g>
        <g transform="matrix(1.24697,0,0,1.24697,-99.0536,-94.2777)">
            <path d="M526.878,362.852L562.46,330.221C564.053,328.759 564.161,326.279 562.699,324.685C561.238,323.091 558.757,322.984 557.164,324.446L520.312,358.241C519.503,358.983 519.042,360.031 519.042,361.129L519.042,413.117C519.042,415.28 520.798,417.035 522.96,417.035C525.122,417.035 526.878,415.28 526.878,413.117L526.878,362.852Z" style="fill:rgb(13,159,73);stroke:rgb(13,159,73);stroke-width:0.71px;"/>
        </g>
        <g transform="matrix(1.60553,0,0,1.60553,-253.402,-199.971)">
            <circle cx="453.353" cy="322.093" r="6.581" style="fill:white;stroke:rgb(20,92,158);stroke-width:0.55px;"/>
            <path d="M453.353,313.785C455.645,313.785 457.722,314.715 459.226,316.219C460.73,317.723 461.66,319.8 461.66,322.093C461.66,324.385 460.73,326.463 459.226,327.966C457.722,329.47 455.645,330.401 453.353,330.401C451.06,330.401 448.983,329.47 447.479,327.966C445.975,326.463 445.045,324.385 445.045,322.093C445.045,319.8 445.975,317.723 447.479,316.219C448.983,314.715 451.06,313.785 453.353,313.785ZM453.353,317.238C452.013,317.238 450.8,317.782 449.921,318.661C449.042,319.54 448.498,320.753 448.498,322.093C448.498,323.432 449.042,324.646 449.921,325.524C450.8,326.403 452.013,326.947 453.353,326.947C454.692,326.947 455.906,326.403 456.784,325.524C457.663,324.646 458.207,323.432 458.207,322.093C458.207,320.753 457.663,319.54 456.784,318.661C455.906,317.782 454.692,317.238 453.353,317.238Z" style="fill:rgb(13,159,73);stroke:rgb(13,159,73);stroke-width:0.55px;"/>
        </g>
        <g transform="matrix(1.60553,0,0,1.60553,-241.586,-275.246)">
            <circle cx="453.353" cy="322.093" r="6.581" style="fill:white;stroke:rgb(20,92,158);stroke-width:0.55px;"/>
            <path d="M453.353,313.785C455.645,313.785 457.722,314.715 459.226,316.219C460.73,317.723 461.66,319.8 461.66,322.093C461.66,324.385 460.73,326.463 459.226,327.966C457.722,329.47 455.645,330.401 453.353,330.401C451.06,330.401 448.983,329.47 447.479,327.966C445.975,326.463 445.045,324.385 445.045,322.093C445.045,319.8 445.975,317.723 447.479,316.219C448.983,314.715 451.06,313.785 453.353,313.785ZM453.353,317.238C452.013,317.238 450.8,317.782 449.921,318.661C449.042,319.54 448.498,320.753 448.498,322.093C448.498,323.432 449.042,324.646 449.921,325.524C450.8,326.403 452.013,326.947 453.353,326.947C454.692,326.947 455.906,326.403 456.784,325.524C457.663,324.646 458.207,323.432 458.207,322.093C458.207,320.753 457.663,319.54 456.784,318.661C455.906,317.782 454.692,317.238 453.353,317.238Z" style="fill:rgb(13,159,73);stroke:rgb(13,159,73);stroke-width:0.55px;"/>
        </g>
        <g transform="matrix(1.60553,0,0,1.60553,-159.492,-263.904)">
            <circle cx="453.353" cy="322.093" r="6.581" style="fill:white;stroke:rgb(20,92,158);stroke-width:0.55px;"/>
            <path d="M453.353,313.785C455.645,313.785 457.722,314.715 459.226,316.219C460.73,317.723 461.66,319.8 461.66,322.093C461.66,324.385 460.73,326.463 459.226,327.966C457.722,329.47 455.645,330.401 453.353,330.401C451.06,330.401 448.983,329.47 447.479,327.966C445.975,326.463 445.045,324.385 445.045,322.093C445.045,319.8 445.975,317.723 447.479,316.219C448.983,314.715 451.06,313.785 453.353,313.785ZM453.353,317.238C452.013,317.238 450.8,317.782 449.921,318.661C449.042,319.54 448.498,320.753 448.498,322.093C448.498,323.432 449.042,324.646 449.921,325.524C450.8,326.403 452.013,326.947 453.353,326.947C454.692,326.947 455.906,326.403 456.784,325.524C457.663,324.646 458.207,323.432 458.207,322.093C458.207,320.753 457.663,319.54 456.784,318.661C455.906,317.782 454.692,317.238 453.353,317.238Z" style="fill:rgb(13,159,73);stroke:rgb(13,159,73);stroke-width:0.55px;"/>
        </g>
        <g transform="matrix(1.60553,0,0,1.60553,-128.857,-203.233)">
            <circle cx="453.353" cy="322.093" r="6.581" style="fill:white;stroke:rgb(20,92,158);stroke-width:0.55px;"/>
            <path d="M453.353,313.785C455.645,313.785 457.722,314.715 459.226,316.219C460.73,317.723 461.66,319.8 461.66,322.093C461.66,324.385 460.73,326.463 459.226,327.966C457.722,329.47 455.645,330.401 453.353,330.401C451.06,330.401 448.983,329.47 447.479,327.966C445.975,326.463 445.045,324.385 445.045,322.093C445.045,319.8 445.975,317.723 447.479,316.219C448.983,314.715 451.06,313.785 453.353,313.785ZM453.353,317.238C452.013,317.238 450.8,317.782 449.921,318.661C449.042,319.54 448.498,320.753 448.498,322.093C448.498,323.432 449.042,324.646 449.921,325.524C450.8,326.403 452.013,326.947 453.353,326.947C454.692,326.947 455.906,326.403 456.784,325.524C457.663,324.646 458.207,323.432 458.207,322.093C458.207,320.753 457.663,319.54 456.784,318.661C455.906,317.782 454.692,317.238 453.353,317.238Z" style="fill:rgb(13,159,73);stroke:rgb(13,159,73);stroke-width:0.55px;"/>
        </g>
    </g>
</svg>
